<?xml version="1.0" encoding="iso-8859-1"?>
<!-- Uploaded to: SVG Repo, www.svgrepo.com, Generator: SVG Repo Mixer Tools -->
<svg height="800px" width="800px" version="1.1" id="Layer_1" xmlns="http://www.w3.org/2000/svg" xmlns:xlink="http://www.w3.org/1999/xlink" 
	 viewBox="0 0 511.999 511.999" xml:space="preserve">
<path style="fill:#FF7876;" d="M159.308,490.576l8.725-103.568h-44.257c-47.166,0-85.539-38.373-85.539-85.539V85.539
	C38.237,38.373,76.61,0,123.776,0h264.447c47.166,0,85.539,38.373,85.539,85.539v215.93c0,47.166-38.373,85.539-85.539,85.539
	h-41.919L191.102,507.81C177.626,518.298,157.855,507.809,159.308,490.576z"/>
<path style="fill:#FF5E5B;" d="M388.222,0H256v457.297l90.304-70.289h41.919c47.166,0,85.539-38.373,85.539-85.539V85.539
	C473.762,38.373,435.39,0,388.222,0z"/>
<path style="fill:#F1F2F2;" d="M175.972,263.117V123.891c0-15.189,16.48-24.676,29.61-17.095l120.575,69.613
	c13.152,7.593,13.132,26.608,0,34.189l-120.575,69.613C192.531,287.748,175.972,278.406,175.972,263.117z"/>
<path style="fill:#E6E7E8;" d="M326.156,176.409L256,135.904v115.2l70.157-40.505C339.308,203.005,339.29,183.991,326.156,176.409z"
	/>
</svg>